# xmcd CD database file
#
# Track frame offsets:
#	150
#	14287
#	26550
#	41025
#	57937
#	68587
#	82800
#	101550
#	114375
#	125662
#	141150
#	149850
#	162112
#	170175
#	181312
#	194100
#
# Disc length: 2809 seconds
#
# Revision: 0
# Processed by: cddbd v1.5.2PL0 Copyright (c) Steve Scherf et al.
# Submitted via: CDex 1.51
#
DISCID=e90af710
DTITLE=Tom Feldmann - Lone Wolf Blues
DYEAR=2012
DGENRE=Blues
TTITLE0=Lone Wolf Blues
TTITLE1=We Have Overcome
TTITLE2=Special Streamline
TTITLE3=Oh Glory, How Happy I Am
TTITLE4=Ever Flowing Fountain
TTITLE5=Level The Hollow
TTITLE6=Delia
TTITLE7=Keep Your Lamp Trimmed And Burning
TTITLE8=God Don`t Never Change
TTITLE9=Homesick and Lonesome Blues
TTITLE10=Guitar Rag
TTITLE11=Yo Yo Blues
TTITLE12=Sic Em Dogs
TTITLE13=Shetland Pony Blues
TTITLE14=Here Am I, Oh Lord, Send Me
TTITLE15=Muddy Waters Medley
EXTD=YEAR: 2012
EXTT0=
EXTT1=
EXTT2=
EXTT3=
EXTT4=
EXTT5=
EXTT6=
EXTT7=
EXTT8=
EXTT9=
EXTT10=
EXTT11=
EXTT12=
EXTT13=
EXTT14=
EXTT15=
PLAYORDER=
